<?xml version="1.0" encoding="UTF-8"?>
<svg width="640px" height="480px" viewBox="0 0 640 480" version="1.1" xmlns="http://www.w3.org/2000/svg">
    <g>
        <path fill="#de2910" d="M0,0 h640 v480 H0 z"/>
        <path fill="#ffde00" d="M0,0 L30,100 L115,100 L45,161.8 L75,261.8 L0,200 L-75,261.8 L-45,161.8 L-115,100 L-30,100 z" transform="translate(120,120) scale(0.8)"/>
        <path fill="#ffde00" d="M0,0 L30,100 L115,100 L45,161.8 L75,261.8 L0,200 L-75,261.8 L-45,161.8 L-115,100 L-30,100 z" transform="translate(320,80) scale(0.3)"/>
        <path fill="#ffde00" d="M0,0 L30,100 L115,100 L45,161.8 L75,261.8 L0,200 L-75,261.8 L-45,161.8 L-115,100 L-30,100 z" transform="translate(360,160) scale(0.3)"/>
        <path fill="#ffde00" d="M0,0 L30,100 L115,100 L45,161.8 L75,261.8 L0,200 L-75,261.8 L-45,161.8 L-115,100 L-30,100 z" transform="translate(320,240) scale(0.3)"/>
        <path fill="#ffde00" d="M0,0 L30,100 L115,100 L45,161.8 L75,261.8 L0,200 L-75,261.8 L-45,161.8 L-115,100 L-30,100 z" transform="translate(240,200) scale(0.3)"/>
    </g>
</svg>
